<svg xmlns="http://www.w3.org/2000/svg" viewBox="0 0 64 64" width="64" height="64">
  <defs>
    <linearGradient id="g" x1="0" y1="0" x2="1" y2="1">
      <stop offset="0" stop-color="#3563ff"/>
      <stop offset="1" stop-color="#22d3ee"/>
    </linearGradient>
  </defs>
  <rect width="64" height="64" rx="14" fill="#0b1020"/>
  <path d="M40 20c-2.5-2.2-6-3.4-9.6-3.4-6.5 0-11 3.6-11 9 0 4.6 3.2 7 9.4 8.4 4.6 1 6 1.9 6 3.8 0 1.8-1.8 2.9-4.7 2.9-3.1 0-5.6-1.2-7.8-3.3l-4 4.6c2.9 3 7 4.6 11.6 4.6 6.9 0 11.4-3.6 11.4-9.3 0-5-3.4-7.3-9.7-8.7-4.4-1-5.8-1.7-5.8-3.5 0-1.6 1.5-2.7 4.1-2.7 2.6 0 4.9 1 6.9 2.7z" fill="url(#g)"/>
</svg>
